<?xml version="1.0" standalone="no"?>
<!DOCTYPE svg PUBLIC "-//W3C//DTD SVG 20010904//EN"
 "http://www.w3.org/TR/2001/REC-SVG-20010904/DTD/svg10.dtd">
<svg version="1.0" xmlns="http://www.w3.org/2000/svg"
 width="700.000000pt" height="700.000000pt" viewBox="0 0 700.000000 700.000000"
 preserveAspectRatio="xMidYMid meet">
<metadata>
Created by potrace 1.11, written by Peter Selinger 2001-2013
</metadata>
<g transform="translate(0.000000,700.000000) scale(0.100000,-0.100000)"
fill="#000000" stroke="none">
<path d="M3215 6994 c-98 -8 -342 -46 -455 -70 -1033 -222 -1915 -907 -2393
-1859 -175 -349 -275 -670 -339 -1090 -20 -133 -23 -187 -23 -475 0 -350 11
-462 71 -740 141 -656 468 -1255 949 -1735 480 -481 1079 -808 1735 -949 278
-60 390 -71 740 -71 288 0 342 3 475 23 420 64 741 164 1090 339 806 404 1423
1097 1730 1943 82 225 135 440 177 715 20 133 23 187 23 475 0 288 -3 342 -23
475 -64 420 -163 738 -339 1090 -173 346 -382 636 -657 911 -481 480 -1079
807 -1736 948 -253 54 -386 68 -690 71 -157 1 -307 1 -335 -1z m658 -958 c301
-49 550 -130 804 -261 681 -353 1168 -991 1328 -1740 43 -201 50 -280 50 -535
0 -255 -7 -334 -50 -535 -50 -234 -121 -432 -230 -643 -352 -677 -996 -1170
-1735 -1326 -209 -44 -284 -51 -540 -51 -256 0 -331 7 -540 51 -382 81 -756
259 -1070 510 -109 88 -296 275 -384 384 -251 314 -429 688 -510 1070 -44 209
-51 284 -51 540 0 256 7 331 51 540 171 812 745 1501 1519 1825 195 82 448
150 650 174 50 6 104 13 120 15 72 10 495 -3 588 -18z"/>
<path d="M3424 5392 c-50 -86 -471 -817 -937 -1624 -466 -807 -847 -1471 -847
-1477 0 -8 557 -11 1880 -11 1201 0 1880 4 1880 10 0 5 -351 618 -781 1362
-430 744 -852 1476 -938 1625 -86 150 -158 273 -161 273 -3 0 -46 -71 -96
-158z m1009 -1520 c-432 -750 -909 -1572 -914 -1572 -3 0 -207 350 -454 778
-247 427 -457 792 -468 810 l-19 32 941 0 941 0 -27 -48z"/>
</g>
</svg>
